<?xml version="1.0" encoding="UTF-8" standalone="no"?>
<svg width="288mm" height="190mm" viewBox="0 0 288 190" version="1.1" id="svg5" xmlns="http://www.w3.org/2000/svg" xmlns:svg="http://www.w3.org/2000/svg">
<g id="checkers">
<rect width="20" height="20" x="4" y="5"></rect>
<rect width="20" height="20" x="44" y="5"></rect>
<rect width="20" height="20" x="84" y="5"></rect>
<rect width="20" height="20" x="124" y="5"></rect>
<rect width="20" height="20" x="164" y="5"></rect>
<rect width="20" height="20" x="204" y="5"></rect>
<rect width="20" height="20" x="244" y="5"></rect>
<rect width="20" height="20" x="24" y="25"></rect>
<rect width="20" height="20" x="64" y="25"></rect>
<rect width="20" height="20" x="104" y="25"></rect>
<rect width="20" height="20" x="144" y="25"></rect>
<rect width="20" height="20" x="184" y="25"></rect>
<rect width="20" height="20" x="224" y="25"></rect>
<rect width="20" height="20" x="264" y="25"></rect>
<rect width="20" height="20" x="4" y="45"></rect>
<rect width="20" height="20" x="44" y="45"></rect>
<rect width="20" height="20" x="84" y="45"></rect>
<rect width="20" height="20" x="124" y="45"></rect>
<rect width="20" height="20" x="164" y="45"></rect>
<rect width="20" height="20" x="204" y="45"></rect>
<rect width="20" height="20" x="244" y="45"></rect>
<rect width="20" height="20" x="24" y="65"></rect>
<rect width="20" height="20" x="64" y="65"></rect>
<rect width="20" height="20" x="104" y="65"></rect>
<rect width="20" height="20" x="144" y="65"></rect>
<rect width="20" height="20" x="184" y="65"></rect>
<rect width="20" height="20" x="224" y="65"></rect>
<rect width="20" height="20" x="264" y="65"></rect>
<rect width="20" height="20" x="4" y="85"></rect>
<rect width="20" height="20" x="44" y="85"></rect>
<rect width="20" height="20" x="84" y="85"></rect>
<rect width="20" height="20" x="124" y="85"></rect>
<rect width="20" height="20" x="164" y="85"></rect>
<rect width="20" height="20" x="204" y="85"></rect>
<rect width="20" height="20" x="244" y="85"></rect>
<rect width="20" height="20" x="24" y="105"></rect>
<rect width="20" height="20" x="64" y="105"></rect>
<rect width="20" height="20" x="104" y="105"></rect>
<rect width="20" height="20" x="144" y="105"></rect>
<rect width="20" height="20" x="184" y="105"></rect>
<rect width="20" height="20" x="224" y="105"></rect>
<rect width="20" height="20" x="264" y="105"></rect>
<rect width="20" height="20" x="4" y="125"></rect>
<rect width="20" height="20" x="44" y="125"></rect>
<rect width="20" height="20" x="84" y="125"></rect>
<rect width="20" height="20" x="124" y="125"></rect>
<rect width="20" height="20" x="164" y="125"></rect>
<rect width="20" height="20" x="204" y="125"></rect>
<rect width="20" height="20" x="244" y="125"></rect>
<rect width="20" height="20" x="24" y="145"></rect>
<rect width="20" height="20" x="64" y="145"></rect>
<rect width="20" height="20" x="104" y="145"></rect>
<rect width="20" height="20" x="144" y="145"></rect>
<rect width="20" height="20" x="184" y="145"></rect>
<rect width="20" height="20" x="224" y="145"></rect>
<rect width="20" height="20" x="264" y="145"></rect>
<rect width="20" height="20" x="4" y="165"></rect>
<rect width="20" height="20" x="44" y="165"></rect>
<rect width="20" height="20" x="84" y="165"></rect>
<rect width="20" height="20" x="124" y="165"></rect>
<rect width="20" height="20" x="164" y="165"></rect>
<rect width="20" height="20" x="204" y="165"></rect>
<rect width="20" height="20" x="244" y="165"></rect>

</g>
</svg>
